# xmcd
#
# Track frame offsets:
#	225
#	14376
#	16411
#	31857
#	45717
#	70586
#	71779
#	98001
#	104384
#	124807
#	129015
#	144654
#	145192
#	167610
#	170404
#	192733
#	197789
#	200827
#	219415
#	231877
#
# Disc length: 3481 seconds
#
# Revision: 2
# Processed by: cddbd v1.5.2PL0 Copyright (c) Steve Scherf et al.
# Submitted via: audiograbber 1.83.01
#
DISCID=240d9614
DTITLE=Jackie Richardson - A Woman's View... Through Child Eyes
DYEAR=2003
DGENRE=
TTITLE0=A Single woman
TTITLE1=I Alone
TTITLE2=Child Eyes (Part 1) - A Woman's View
TTITLE3=I'm in Love
TTITLE4=You've Got to Give Me Room
TTITLE5=Please
TTITLE6=If I Could Only Sleep
TTITLE7=Me?
TTITLE8=I Like Your Company - Old Friends
TTITLE9=Too Beautiful to Know
TTITLE10=If I Could
TTITLE11=My Baby
TTITLE12=The Lies of Handsome Men
TTITLE13=Green Lies and Man
TTITLE14=Here's to Life
TTITLE15=Finer Wine
TTITLE16=Thank You Lord
TTITLE17=Stay With Me
TTITLE18=Child Eyes (Part 2)
TTITLE19=Papa Can You Hear Me - A Piece of the Sky
EXTD=
EXTT0=
EXTT1=
EXTT2=
EXTT3=
EXTT4=
EXTT5=
EXTT6=
EXTT7=
EXTT8=
EXTT9=
EXTT10=
EXTT11=
EXTT12=
EXTT13=
EXTT14=
EXTT15=
EXTT16=
EXTT17=
EXTT18=
EXTT19=
PLAYORDER=
